<?xml version="1.0" encoding="UTF-8" standalone="no"?>
<!DOCTYPE svg PUBLIC "-//W3C//DTD SVG 1.1//EN" "http://www.w3.org/Graphics/SVG/1.1/DTD/svg11.dtd">
<svg width="100%" height="100%" viewBox="0 0 2082 516" version="1.1" xmlns="http://www.w3.org/2000/svg" xmlns:xlink="http://www.w3.org/1999/xlink" xml:space="preserve" xmlns:serif="http://www.serif.com/" style="fill-rule:evenodd;clip-rule:evenodd;stroke-linejoin:round;stroke-miterlimit:2;">
    <g transform="matrix(1,0,0,1,-2252.48,-2025.57)">
        <g transform="matrix(1.6379,0,0,1,858.569,-103.095)">
            <g transform="matrix(1,0,0,1,-252.763,425.093)">
                <g transform="matrix(4.40829,0,0,7.22034,-1716.58,-6900.69)">
                    <g transform="matrix(50,0,0,50,721.011,1242.4)">
                        <path d="M0.41,-0L0.227,-0L0.227,-0.532L0.013,-0.532L0.013,-0.7L0.41,-0.7L0.41,-0Z" style="fill:rgb(0,151,255);fill-rule:nonzero;"/>
                    </g>
                    <text x="743.911px" y="1242.4px" style="font-family:'Unigeo32Trial-Bold', 'Unigeo32 Trial';font-weight:700;font-size:50px;fill:rgb(0,151,255);"><tspan x="743.911px " y="1242.4px ">a</tspan>u</text>
                </g>
                <g transform="matrix(0.610538,0,0,1,1833.02,1803.45)">
                    <path d="M77.98,13.719L195.31,175.454L195.31,13.719L257.766,13.719L257.766,266.431L187.007,266.431L1.444,13.719L77.98,13.719Z" style="fill:rgb(39,67,111);fill-rule:nonzero;"/>
                    <path d="M290.619,66.066L352.353,66.066L352.353,266.431L290.619,266.431L290.619,66.066ZM290.619,0L352.353,0L352.353,46.571L290.619,46.571L290.619,0Z" style="fill:rgb(39,67,111);fill-rule:nonzero;"/>
                    <path d="M454.16,271.485C438.756,271.485 425.218,268.537 413.545,262.64C401.872,256.743 392.787,248.44 386.288,237.73C379.79,227.02 376.541,214.685 376.541,200.726L436.47,200.726C436.47,207.224 438.094,212.338 441.344,216.069C444.593,219.799 448.985,221.665 454.521,221.665C459.816,221.665 463.907,220.401 466.795,217.874C469.683,215.347 471.127,211.797 471.127,207.224C471.127,201.929 468.66,197.898 463.727,195.13C458.793,192.362 451.031,189.414 440.441,186.285C428.166,182.675 417.998,178.884 409.935,174.913C401.872,170.942 394.893,164.804 388.996,156.501C383.099,148.198 380.151,137.307 380.151,123.829C380.151,104.575 387.01,89.171 400.729,77.619C414.448,66.066 432.258,60.29 454.16,60.29C469.322,60.29 482.68,63.178 494.233,68.954C505.785,74.731 514.63,82.793 520.767,93.142C526.905,103.492 529.853,115.526 529.612,129.244L470.766,128.883C470.766,123.348 469.322,118.955 466.434,115.706C463.546,112.457 459.695,110.832 454.882,110.832C450.549,110.832 447.12,112.036 444.593,114.442C442.066,116.849 440.802,119.978 440.802,123.829C440.802,128.402 443.028,131.952 447.481,134.479C451.933,137.006 459.575,140.075 470.405,143.685C482.68,147.536 492.969,151.507 501.272,155.598C509.576,159.69 516.796,165.948 522.933,174.371C529.071,182.795 532.139,193.746 532.139,207.224C532.139,226.959 525.039,242.604 510.839,254.156C496.639,265.709 477.746,271.485 454.16,271.485Z" style="fill:rgb(39,67,111);fill-rule:nonzero;"/>
                    <path d="M631.78,267.875C602.899,267.875 582.622,260.955 570.949,247.116C559.276,233.277 553.439,213 553.439,186.285L553.439,24.188L614.451,24.188L614.451,66.066L659.578,66.066L659.578,123.468L614.451,123.468L614.451,184.48C614.451,199.402 621.792,206.863 636.473,206.863L659.578,206.863L659.578,267.875L631.78,267.875Z" style="fill:rgb(39,67,111);fill-rule:nonzero;"/>
                    <path d="M827.09,250.185C813.131,264.866 793.877,272.207 769.328,272.207C751.277,272.207 734.85,267.634 720.049,258.488C705.247,249.343 693.634,236.707 685.211,220.582C676.787,204.456 672.575,186.405 672.575,166.429C672.575,146.453 676.787,128.402 685.211,112.276C693.634,96.151 705.247,83.455 720.049,74.189C734.85,64.923 751.277,60.29 769.328,60.29C794.117,60.29 813.372,67.751 827.09,82.673L827.09,66.066L886.658,66.066L886.658,266.431L827.09,266.431L827.09,250.185ZM779.436,212.639C792.192,212.639 802.962,208.247 811.747,199.462C820.532,190.677 824.924,179.666 824.924,166.429C824.924,153.192 820.592,142.181 811.928,133.396C803.263,124.611 792.433,120.219 779.436,120.219C766.439,120.219 755.609,124.611 746.945,133.396C738.28,142.181 733.948,153.192 733.948,166.429C733.948,179.666 738.34,190.677 747.125,199.462C755.91,208.247 766.68,212.639 779.436,212.639Z" style="fill:rgb(39,67,111);fill-rule:nonzero;"/>
                </g>
            </g>
        </g>
        <g transform="matrix(1.6379,0,0,1,858.569,-103.095)">
            <g transform="matrix(1.44474,0,0,2.36634,715.228,1198.84)">
                <path d="M188.468,401.218C184.089,405.773 161.042,429.355 137.253,453.623C113.464,477.891 94,497.916 94,498.123C94,498.33 115.499,498.379 141.775,498.231L189.551,497.963L217.521,469.979L245.491,441.996L196.432,392.937L188.468,401.218M229.713,481.999L202.926,509.942L202.713,558.471C202.596,585.162 202.727,607 203.004,607C203.282,607 222.519,587.986 245.754,564.746L288,522.491L288,484.476L272.738,469.238C264.344,460.857 257.257,454.012 256.988,454.028C256.72,454.043 244.446,466.63 229.713,481.999M223.23,505.269L214,514.538L214,545.269C214,562.171 214.346,576 214.77,576C215.193,576 219.693,571.829 224.77,566.731L234,557.462L234,526.731C234,509.829 233.654,496 233.23,496C232.807,496 228.307,500.171 223.23,505.269M95,512.396C95,512.613 117.275,534.831 144.5,561.769L194,610.747L194,512L144.5,512C117.275,512 95,512.178 95,512.396" style="fill:rgb(0,151,255);"/>
            </g>
        </g>
    </g>
</svg>
